CommonSerif-Bold.ufo
<glyph name="B" format="2">
  <advance width="655"/>
  <unicode hex="0042"/>
  <outline>
    <contour>
      <point x="27" y="-2" type="curve"/>
      <point x="76" y="-1"/>
      <point x="177" y="0"/>
      <point x="187" y="0" type="curve"/>
      <point x="187" y="645" type="line"/>
      <point x="177" y="645"/>
      <point x="77" y="646"/>
      <point x="27" y="647" type="curve"/>
      <point x="21" y="641"/>
      <point x="21" y="619"/>
      <point x="27" y="613" type="curve"/>
      <point x="97" y="610"/>
      <point x="114" y="605"/>
      <point x="114" y="522" type="curve" smooth="yes"/>
      <point x="114" y="123" type="line" smooth="yes"/>
      <point x="114" y="39"/>
      <point x="97" y="35"/>
      <point x="27" y="32" type="curve"/>
      <point x="21" y="26"/>
      <point x="21" y="4"/>
    </contour>
    <contour>
      <point x="177" y="645" type="curve"/>
      <point x="177" y="0" type="line"/>
      <point x="217" y="0"/>
      <point x="286" y="-2"/>
      <point x="346" y="-2" type="curve" smooth="yes"/>
      <point x="551" y="-2"/>
      <point x="617" y="84"/>
      <point x="617" y="186" type="curve" smooth="yes"/>
      <point x="617" y="274"/>
      <point x="573" y="331"/>
      <point x="467" y="359" type="curve"/>
      <point x="467" y="361" type="line"/>
      <point x="521" y="385"/>
      <point x="563" y="440"/>
      <point x="563" y="491" type="curve" smooth="yes"/>
      <point x="563" y="560"/>
      <point x="526" y="647"/>
      <point x="324" y="647" type="curve" smooth="yes"/>
      <point x="274" y="647"/>
      <point x="209" y="645"/>
    </contour>
    <contour>
      <point x="251" y="334" type="line"/>
      <point x="322" y="334" type="line" smooth="yes"/>
      <point x="425" y="334"/>
      <point x="470" y="273"/>
      <point x="470" y="187" type="curve" smooth="yes"/>
      <point x="470" y="127"/>
      <point x="449" y="40"/>
      <point x="317" y="40" type="curve" smooth="yes"/>
      <point x="257" y="40"/>
      <point x="251" y="55"/>
      <point x="251" y="84" type="curve" smooth="yes"/>
    </contour>
    <contour>
      <point x="251" y="562" type="line" smooth="yes"/>
      <point x="251" y="591"/>
      <point x="256" y="605"/>
      <point x="321" y="605" type="curve" smooth="yes"/>
      <point x="367" y="605"/>
      <point x="423" y="587"/>
      <point x="423" y="489" type="curve" smooth="yes"/>
      <point x="423" y="409"/>
      <point x="378" y="376"/>
      <point x="307" y="376" type="curve" smooth="yes"/>
      <point x="251" y="376" type="line"/>
    </contour>
  </outline>
</glyph>
<glyph name="D" format="2">
  <advance width="728"/>
  <unicode hex="0044"/>
  <outline>
    <contour>
      <point x="27" y="-2" type="curve"/>
      <point x="76" y="-1"/>
      <point x="177" y="0"/>
      <point x="187" y="0" type="curve"/>
      <point x="187" y="645" type="line"/>
      <point x="177" y="645"/>
      <point x="77" y="646"/>
      <point x="27" y="647" type="curve"/>
      <point x="21" y="641"/>
      <point x="21" y="619"/>
      <point x="27" y="613" type="curve"/>
      <point x="97" y="610"/>
      <point x="114" y="605"/>
      <point x="114" y="522" type="curve" smooth="yes"/>
      <point x="114" y="123" type="line" smooth="yes"/>
      <point x="114" y="39"/>
      <point x="97" y="35"/>
      <point x="27" y="32" type="curve"/>
      <point x="21" y="26"/>
      <point x="21" y="4"/>
    </contour>
    <contour>
      <point x="182" y="0" type="line"/>
      <point x="222" y="0"/>
      <point x="306" y="-2"/>
      <point x="346" y="-2" type="curve" smooth="yes"/>
      <point x="552" y="-2"/>
      <point x="685" y="95.2428"/>
      <point x="685" y="309.455" type="curve" smooth="yes"/>
      <point x="685" y="494"/>
      <point x="565" y="646"/>
      <point x="319" y="646" type="curve" smooth="yes"/>
      <point x="266" y="646"/>
      <point x="222" y="645"/>
      <point x="182" y="645" type="curve"/>
    </contour>
    <contour>
      <point x="251" y="119.349" type="curve" smooth="yes"/>
      <point x="251" y="529" type="line" smooth="yes"/>
      <point x="251" y="584"/>
      <point x="277" y="604"/>
      <point x="313" y="604" type="curve" smooth="yes"/>
      <point x="510" y="604"/>
      <point x="532" y="435"/>
      <point x="532" y="284.997" type="curve" smooth="yes"/>
      <point x="532" y="102.274"/>
      <point x="423" y="40"/>
      <point x="347" y="40" type="curve" smooth="yes"/>
      <point x="277" y="40"/>
      <point x="251" y="52.053"/>
    </contour>
  </outline>
</glyph>
<glyph name="k" format="2">
  <advance width="612"/>
  <unicode hex="006B"/>
  <anchor x="316" y="740" name="t.uni0302"/>
  <anchor x="310" y="-60" name="b.minus-60"/>
  <outline>
    <contour>
      <point x="25" y="-2" type="curve"/>
      <point x="67" y="-1"/>
      <point x="109" y="0"/>
      <point x="162" y="0" type="curve" smooth="yes"/>
      <point x="208" y="0"/>
      <point x="236" y="-1"/>
      <point x="279" y="-2" type="curve"/>
      <point x="285" y="4"/>
      <point x="285" y="26"/>
      <point x="279" y="32" type="curve"/>
      <point x="237" y="36"/>
      <point x="227" y="39"/>
      <point x="227" y="122" type="curve"/>
      <point x="97" y="122" type="line"/>
      <point x="97" y="39"/>
      <point x="86" y="37"/>
      <point x="25" y="32" type="curve"/>
      <point x="19" y="26"/>
      <point x="19" y="4"/>
    </contour>
    <contour>
      <point x="97" y="110" type="line"/>
      <point x="227" y="110" type="line"/>
      <point x="227" y="583" type="line" smooth="yes"/>
      <point x="227" y="648"/>
      <point x="230" y="681"/>
      <point x="230" y="685" type="curve" smooth="yes"/>
      <point x="230" y="694"/>
      <point x="223" y="698"/>
      <point x="214" y="698" type="curve"/>
      <point x="177" y="686"/>
      <point x="97" y="675"/>
      <point x="26" y="672" type="curve"/>
      <point x="23" y="660"/>
      <point x="24" y="649"/>
      <point x="29" y="640" type="curve"/>
      <point x="92" y="635"/>
      <point x="97" y="634"/>
      <point x="97" y="565" type="curve" smooth="yes"/>
    </contour>
    <contour>
      <point x="211" y="209" type="line"/>
      <point x="267" y="209"/>
      <point x="290" y="200"/>
      <point x="302" y="180" type="curve" smooth="yes"/>
      <point x="364" y="78" type="line" smooth="yes"/>
      <point x="375" y="60"/>
      <point x="380" y="37"/>
      <point x="380" y="2" type="curve" smooth="yes"/>
      <point x="380" y="0"/>
      <point x="382" y="-2"/>
      <point x="385" y="-2" type="curve" smooth="yes"/>
      <point x="390" y="-2"/>
      <point x="427" y="0"/>
      <point x="462" y="0" type="curve" smooth="yes"/>
      <point x="503" y="0"/>
      <point x="559" y="-1"/>
      <point x="596" y="-2" type="curve"/>
      <point x="602" y="4"/>
      <point x="602" y="26"/>
      <point x="596" y="32" type="curve"/>
      <point x="557" y="36"/>
      <point x="535" y="33"/>
      <point x="505" y="78" type="curve" smooth="yes"/>
      <point x="389" y="249" type="line"/>
      <point x="386" y="253"/>
      <point x="384" y="258"/>
      <point x="384" y="262" type="curve" smooth="yes"/>
      <point x="384" y="264"/>
      <point x="385.755" y="268.731"/>
      <point x="389.085" y="272.394" type="curve" smooth="yes"/>
      <point x="436" y="324" type="line" smooth="yes"/>
      <point x="488.851" y="382.136"/>
      <point x="510" y="397"/>
      <point x="571" y="402" type="curve"/>
      <point x="577" y="408"/>
      <point x="577" y="430"/>
      <point x="571" y="436" type="curve"/>
      <point x="549" y="435"/>
      <point x="486" y="434"/>
      <point x="460" y="434" type="curve" smooth="yes"/>
      <point x="423" y="434"/>
      <point x="376" y="435"/>
      <point x="339" y="436" type="curve"/>
      <point x="333" y="430"/>
      <point x="333" y="408"/>
      <point x="339" y="402" type="curve"/>
      <point x="375" y="399"/>
      <point x="394" y="394"/>
      <point x="394" y="379" type="curve" smooth="yes"/>
      <point x="394" y="355"/>
      <point x="339" y="293"/>
      <point x="316" y="277" type="curve" smooth="yes"/>
      <point x="297" y="264"/>
      <point x="252" y="250"/>
      <point x="211" y="250" type="curve"/>
    </contour>
  </outline>
</glyph>
<glyph name="dcroat" format="2">
  <advance width="561"/>
  <unicode hex="0111"/>
  <outline>
    <contour>
      <point x="359" y="7" type="curve"/>
      <point x="361" y="-5"/>
      <point x="368" y="-10"/>
      <point x="382" y="-10" type="curve"/>
      <point x="419" y="0"/>
      <point x="479" y="14"/>
      <point x="548" y="23" type="curve"/>
      <point x="550" y="29"/>
      <point x="548" y="49"/>
      <point x="546" y="55" type="curve"/>
      <point x="492" y="60"/>
      <point x="481" y="76"/>
      <point x="481" y="133" type="curve" smooth="yes"/>
      <point x="481" y="583" type="line" smooth="yes"/>
      <point x="481" y="648"/>
      <point x="483.7" y="681.3"/>
      <point x="484" y="685" type="curve"/>
      <point x="484" y="694"/>
      <point x="477" y="698"/>
      <point x="468" y="698" type="curve"/>
      <point x="431" y="686"/>
      <point x="351" y="675"/>
      <point x="280" y="672" type="curve"/>
      <point x="277" y="660"/>
      <point x="278" y="647"/>
      <point x="283" y="638" type="curve"/>
      <point x="346" y="633"/>
      <point x="351" y="632"/>
      <point x="351" y="563" type="curve" smooth="yes"/>
      <point x="351" y="120" type="line" smooth="yes"/>
      <point x="351" y="83"/>
      <point x="354" y="44"/>
    </contour>
    <contour>
      <point x="363" y="429" type="line"/>
      <point x="343" y="437"/>
      <point x="314" y="444"/>
      <point x="279" y="444" type="curve" smooth="yes"/>
      <point x="150" y="444"/>
      <point x="37" y="331"/>
      <point x="37" y="198" type="curve" smooth="yes"/>
      <point x="37" y="85"/>
      <point x="107" y="-10"/>
      <point x="224" y="-10" type="curve" smooth="yes"/>
      <point x="259" y="-10"/>
      <point x="311" y="16"/>
      <point x="361" y="59" type="curve"/>
      <point x="359" y="103" type="line"/>
      <point x="329" y="73"/>
      <point x="295" y="56"/>
      <point x="266" y="56" type="curve" smooth="yes"/>
      <point x="216" y="56"/>
      <point x="177" y="112"/>
      <point x="177" y="229" type="curve" smooth="yes"/>
      <point x="177" y="294"/>
      <point x="187" y="402"/>
      <point x="276" y="402" type="curve" smooth="yes"/>
      <point x="306" y="402"/>
      <point x="337" y="398"/>
      <point x="363" y="346" type="curve"/>
    </contour>
    <contour>
      <point x="393.969" y="520.052" type="line"/>
      <point x="393.969" y="568.052" type="line"/>
      <point x="266.969" y="568.052" type="line" smooth="yes"/>
      <point x="257.969" y="568.052"/>
      <point x="241.969" y="558.052"/>
      <point x="241.969" y="537.052" type="curve" smooth="yes"/>
      <point x="241.969" y="529.052"/>
      <point x="244.969" y="520.052"/>
      <point x="251.969" y="520.052" type="curve" smooth="yes"/>
    </contour>
    <contour>
      <point x="393.057" y="519.832" type="line"/>
      <point x="528.057" y="519.832" type="line" smooth="yes"/>
      <point x="539.057" y="519.832"/>
      <point x="553.057" y="531.832"/>
      <point x="553.057" y="548.832" type="curve" smooth="yes"/>
      <point x="553.057" y="557.832"/>
      <point x="550.057" y="567.832"/>
      <point x="543.057" y="567.832" type="curve" smooth="yes"/>
      <point x="393.057" y="567.832" type="line"/>
    </contour>
  </outline>
</glyph>
<glyph name="uni0187" format="2">
  <advance width="707"/>
  <unicode hex="0187"/>
  <outline>
    <contour>
      <point x="668" y="743" type="curve" smooth="yes"/>
      <point x="633" y="743"/>
      <point x="569" y="708"/>
      <point x="555" y="631" type="curve"/>
      <point x="519" y="644"/>
      <point x="473" y="658"/>
      <point x="404.426" y="658" type="curve" smooth="yes"/>
      <point x="194.454" y="658"/>
      <point x="38" y="526.74"/>
      <point x="38" y="310.911" type="curve" smooth="yes"/>
      <point x="38" y="113.753"/>
      <point x="168.554" y="-10"/>
      <point x="374.296" y="-10" type="curve" smooth="yes"/>
      <point x="495" y="-10"/>
      <point x="584" y="36"/>
      <point x="652" y="125" type="curve"/>
      <point x="647" y="134"/>
      <point x="630" y="146"/>
      <point x="619" y="146" type="curve"/>
      <point x="548" y="68"/>
      <point x="467" y="42"/>
      <point x="403.375" y="42" type="curve" smooth="yes"/>
      <point x="271.823" y="42"/>
      <point x="189" y="153.948"/>
      <point x="189" y="331.76" type="curve" smooth="yes"/>
      <point x="189" y="451.896"/>
      <point x="246.364" y="617"/>
      <point x="388" y="617" type="curve" smooth="yes"/>
      <point x="526" y="617"/>
      <point x="571" y="539"/>
      <point x="597" y="453" type="curve"/>
      <point x="609" y="449"/>
      <point x="629" y="452"/>
      <point x="640" y="458" type="curve"/>
      <point x="629.232" y="511.775"/>
      <point x="621.453" y="556.594"/>
      <point x="618" y="613" type="curve"/>
      <point x="606" y="614"/>
      <point x="594" y="617"/>
      <point x="581" y="622" type="curve"/>
      <point x="592.002" y="650.366"/>
      <point x="625" y="672"/>
      <point x="661.364" y="672" type="curve" smooth="yes"/>
      <point x="677" y="672"/>
      <point x="704" y="676"/>
      <point x="704" y="704.492" type="curve" smooth="yes"/>
      <point x="704" y="719"/>
      <point x="697" y="743"/>
    </contour>
  </outline>
</glyph>
<glyph name="uni0190" format="2">
  <advance width="562"/>
  <unicode hex="0190"/>
  <outline>
    <contour>
      <point x="305" y="-10" type="curve" smooth="yes"/>
      <point x="443" y="-10"/>
      <point x="444" y="10"/>
      <point x="501" y="10" type="curve"/>
      <point x="515" y="56"/>
      <point x="526" y="123"/>
      <point x="530" y="175" type="curve"/>
      <point x="517" y="181"/>
      <point x="500" y="184"/>
      <point x="480" y="178" type="curve"/>
      <point x="461" y="93"/>
      <point x="396" y="32"/>
      <point x="324" y="32" type="curve" smooth="yes"/>
      <point x="227" y="32"/>
      <point x="181" y="82"/>
      <point x="181" y="187" type="curve" smooth="yes"/>
      <point x="181" y="281"/>
      <point x="224" y="324"/>
      <point x="319" y="324" type="curve" smooth="yes"/>
      <point x="397" y="324" type="line"/>
      <point x="402" y="337"/>
      <point x="402" y="362"/>
      <point x="397" y="376" type="curve"/>
      <point x="334" y="376" type="line" smooth="yes"/>
      <point x="254" y="376"/>
      <point x="208" y="417"/>
      <point x="208" y="489" type="curve" smooth="yes"/>
      <point x="208" y="567"/>
      <point x="247" y="617"/>
      <point x="309" y="617" type="curve" smooth="yes"/>
      <point x="375" y="617"/>
      <point x="425" y="567"/>
      <point x="450" y="474" type="curve"/>
      <point x="467" y="469"/>
      <point x="491" y="471"/>
      <point x="500" y="479" type="curve"/>
      <point x="500" y="525"/>
      <point x="497" y="562"/>
      <point x="489" y="631" type="curve"/>
      <point x="428" y="640"/>
      <point x="372" y="658"/>
      <point x="310" y="658" type="curve" smooth="yes"/>
      <point x="159" y="658"/>
      <point x="68" y="595"/>
      <point x="68" y="491" type="curve" smooth="yes"/>
      <point x="68" y="444"/>
      <point x="114" y="387"/>
      <point x="174" y="361" type="curve"/>
      <point x="174" y="358" type="line"/>
      <point x="75" y="332"/>
      <point x="34" y="281"/>
      <point x="34" y="186" type="curve" smooth="yes"/>
      <point x="34" y="62"/>
      <point x="133" y="-10"/>
    </contour>
  </outline>
</glyph>
<glyph name="uni01BE" format="2">
  <advance width="453"/>
  <unicode hex="01BE"/>
  <outline>
    <contour>
      <point x="41.95" y="-5" type="curve"/>
      <point x="50.65" y="-1.65"/>
      <point x="62.4" y="-0.3875"/>
      <point x="75.65" y="-0.4" type="curve" smooth="yes"/>
      <point x="115.4" y="-0.4375"/>
      <point x="168.75" y="-12"/>
      <point x="195" y="-12" type="curve" smooth="yes"/>
      <point x="313.9" y="-12"/>
      <point x="407" y="25.7797"/>
      <point x="407" y="142.63" type="curve" smooth="yes"/>
      <point x="407" y="305.796"/>
      <point x="162" y="277.899"/>
      <point x="162" y="411.491" type="curve" smooth="yes"/>
      <point x="162" y="663.4" type="line"/>
      <point x="77.1213" y="627.85" type="line"/>
      <point x="77.1213" y="549.947" type="line" smooth="yes"/>
      <point x="77.1213" y="505.581"/>
      <point x="50.473" y="484"/>
      <point x="9.1" y="484" type="curve" smooth="yes"/>
      <point x="5.5" y="484"/>
      <point x="2" y="479.3"/>
      <point x="2" y="475.65" type="curve" smooth="yes"/>
      <point x="2" y="447.4" type="line" smooth="yes"/>
      <point x="2" y="440"/>
      <point x="4.1" y="438"/>
      <point x="11.9" y="438" type="curve" smooth="yes"/>
      <point x="67" y="438" type="line"/>
      <point x="67" y="392.082" type="line" smooth="yes"/>
      <point x="67" y="217.537"/>
      <point x="294" y="232.485"/>
      <point x="294" y="126.63" type="curve" smooth="yes"/>
      <point x="294" y="64.9797"/>
      <point x="268.55" y="29"/>
      <point x="192" y="29" type="curve" smooth="yes"/>
      <point x="121.05" y="29"/>
      <point x="101.25" y="46.3"/>
      <point x="64.3" y="141.1" type="curve"/>
      <point x="28.95" y="141.3" type="line"/>
      <point x="36.5253" y="93.5488"/>
      <point x="41.8911" y="45.2566"/>
    </contour>
    <contour>
      <point x="147" y="438" type="line"/>
      <point x="240.4" y="438" type="line" smooth="yes"/>
      <point x="245.4" y="438"/>
      <point x="250" y="444.05"/>
      <point x="250" y="449.05" type="curve" smooth="yes"/>
      <point x="250" y="474.15" type="line" smooth="yes"/>
      <point x="250" y="481.05"/>
      <point x="247.8" y="484"/>
      <point x="237.8" y="484" type="curve" smooth="yes"/>
      <point x="147" y="484" type="line"/>
    </contour>
  </outline>
</glyph>
<glyph name="uni01C2" format="2">
  <advance width="348"/>
  <unicode hex="01C2"/>
  <outline>
    <contour>
      <point x="204" y="0" type="curve"/>
      <point x="204" y="698" type="line"/>
      <point x="184" y="704"/>
      <point x="164" y="704"/>
      <point x="144" y="698" type="curve"/>
      <point x="144" y="0" type="line"/>
      <point x="164" y="-6"/>
      <point x="184" y="-6"/>
    </contour>
    <contour>
      <point x="179" y="387" type="line"/>
      <point x="179" y="435" type="line"/>
      <point x="52" y="435" type="line" smooth="yes"/>
      <point x="43" y="435"/>
      <point x="27" y="425"/>
      <point x="27" y="404" type="curve" smooth="yes"/>
      <point x="27" y="396"/>
      <point x="30" y="387"/>
      <point x="37" y="387" type="curve" smooth="yes"/>
    </contour>
    <contour>
      <point x="168" y="387" type="line"/>
      <point x="303" y="387" type="line" smooth="yes"/>
      <point x="314" y="387"/>
      <point x="328" y="399"/>
      <point x="328" y="416" type="curve" smooth="yes"/>
      <point x="328" y="425"/>
      <point x="325" y="435"/>
      <point x="318" y="435" type="curve" smooth="yes"/>
      <point x="168" y="435" type="line"/>
    </contour>
    <contour>
      <point x="179" y="285" type="line"/>
      <point x="179" y="333" type="line"/>
      <point x="52" y="333" type="line" smooth="yes"/>
      <point x="43" y="333"/>
      <point x="27" y="323"/>
      <point x="27" y="302" type="curve" smooth="yes"/>
      <point x="27" y="294"/>
      <point x="30" y="285"/>
      <point x="37" y="285" type="curve" smooth="yes"/>
    </contour>
    <contour>
      <point x="168" y="285" type="line"/>
      <point x="303" y="285" type="line" smooth="yes"/>
      <point x="314" y="285"/>
      <point x="328" y="297"/>
      <point x="328" y="314" type="curve" smooth="yes"/>
      <point x="328" y="323"/>
      <point x="325" y="333"/>
      <point x="318" y="333" type="curve" smooth="yes"/>
      <point x="168" y="333" type="line"/>
    </contour>
  </outline>
</glyph>
<glyph name="uni0269" format="2">
  <advance width="314"/>
  <unicode hex="0269"/>
  <outline>
    <contour>
      <point x="202" y="127" type="curve" smooth="yes"/>
      <point x="202" y="169.073" type="line"/>
      <point x="223" y="429" type="line"/>
      <point x="203" y="446" type="line"/>
      <point x="71.9772" y="415.537" type="line"/>
      <point x="72" y="105" type="line" smooth="yes"/>
      <point x="72.0054" y="31.0489"/>
      <point x="112.445" y="-10"/>
      <point x="185" y="-10" type="curve" smooth="yes"/>
      <point x="240" y="-10"/>
      <point x="296" y="18"/>
      <point x="316" y="46" type="curve"/>
      <point x="316" y="58"/>
      <point x="310" y="64"/>
      <point x="298" y="74" type="curve"/>
      <point x="285" y="64"/>
      <point x="265" y="60"/>
      <point x="246" y="60" type="curve" smooth="yes"/>
      <point x="211.093" y="60"/>
      <point x="202" y="98.586"/>
    </contour>
  </outline>
</glyph>
<glyph name="uni02D0" format="2">
  <advance width="209"/>
  <unicode hex="02D0"/>
  <outline>
    <contour>
      <point x="36" y="37" type="line"/>
      <point x="175" y="37" type="line"/>
      <point x="105" y="158" type="line"/>
    </contour>
    <contour>
      <point x="36" y="405" type="line"/>
      <point x="105" y="284" type="line"/>
      <point x="175" y="405" type="line"/>
    </contour>
  </outline>
</glyph>
<glyph name="dotaccent" format="2">
  <advance width="190"/>
  <unicode hex="02D9"/>
  <outline>
    <contour>
      <point x="40" y="555" type="curve" smooth="yes"/>
      <point x="40" y="525"/>
      <point x="65" y="500"/>
      <point x="95" y="500" type="curve" smooth="yes"/>
      <point x="126" y="500"/>
      <point x="150" y="525"/>
      <point x="150" y="555" type="curve" smooth="yes"/>
      <point x="150" y="586"/>
      <point x="126" y="610"/>
      <point x="95" y="610" type="curve" smooth="yes"/>
      <point x="65" y="610"/>
      <point x="40" y="586"/>
    </contour>
  </outline>
</glyph>
<glyph name="uni033D" format="2">
  <unicode hex="033D"/>
  <outline>
    <contour>
      <point x="-233" y="540" type="line"/>
      <point x="-159" y="614" type="line"/>
      <point x="-187" y="642" type="line"/>
      <point x="-260" y="568" type="line"/>
      <point x="-333" y="642" type="line"/>
      <point x="-362" y="614" type="line"/>
      <point x="-288" y="540" type="line"/>
      <point x="-362" y="467" type="line"/>
      <point x="-333" y="439" type="line"/>
      <point x="-260" y="512" type="line"/>
      <point x="-187" y="439" type="line"/>
      <point x="-159" y="467" type="line"/>
    </contour>
  </outline>
</glyph>
<glyph name="uni035E" format="2">
  <unicode hex="035E"/>
  <outline>
    <contour>
      <point x="-378" y="530" type="curve" smooth="yes"/>
      <point x="357" y="530" type="line" smooth="yes"/>
      <point x="370" y="530"/>
      <point x="383" y="555"/>
      <point x="383" y="567" type="curve" smooth="yes"/>
      <point x="383" y="576"/>
      <point x="380" y="584"/>
      <point x="369" y="584" type="curve" smooth="yes"/>
      <point x="-366" y="584" type="line" smooth="yes"/>
      <point x="-378" y="584"/>
      <point x="-392" y="559"/>
      <point x="-392" y="547" type="curve" smooth="yes"/>
      <point x="-392" y="539"/>
      <point x="-389" y="530"/>
    </contour>
  </outline>
</glyph>
<glyph name="uni0402" format="2">
  <advance width="804"/>
  <unicode hex="0402"/>
  <outline>
    <contour>
      <point x="444.949" y="-91.4781" type="curve" smooth="yes"/>
      <point x="444.949" y="-128.278"/>
      <point x="486.699" y="-156"/>
      <point x="553.117" y="-156" type="curve" smooth="yes"/>
      <point x="657.42" y="-156"/>
      <point x="765.136" y="-89.0926"/>
      <point x="765.136" y="83.1935" type="curve" smooth="yes"/>
      <point x="765.136" y="255.271" type="line" smooth="yes"/>
      <point x="765.136" y="367.787"/>
      <point x="695.104" y="444"/>
      <point x="591.714" y="444" type="curve" smooth="yes"/>
      <point x="516.716" y="444"/>
      <point x="434.618" y="409.952"/>
      <point x="395" y="367" type="curve"/>
      <point x="395" y="324" type="line"/>
      <point x="436.571" y="363.763"/>
      <point x="469.116" y="380"/>
      <point x="523.597" y="380" type="curve" smooth="yes"/>
      <point x="595.468" y="380"/>
      <point x="624.864" y="316.921"/>
      <point x="624.864" y="152" type="curve" smooth="yes"/>
      <point x="624.864" y="47.8661" type="line" smooth="yes"/>
      <point x="624.864" y="-48.0823"/>
      <point x="609.964" y="-98.9672"/>
      <point x="586.468" y="-98.9672" type="curve" smooth="yes"/>
      <point x="565.512" y="-98.9672"/>
      <point x="539.24" y="-45.9945"/>
      <point x="493.417" y="-45.9945" type="curve" smooth="yes"/>
      <point x="466.766" y="-45.9945"/>
      <point x="444.949" y="-64.0149"/>
    </contour>
    <contour>
      <point x="405" y="123" type="curve" smooth="yes"/>
      <point x="405" y="503" type="line" smooth="yes"/>
      <point x="405" y="567"/>
      <point x="415" y="604"/>
      <point x="451" y="604" type="curve" smooth="yes"/>
      <point x="473" y="604" type="line" smooth="yes"/>
      <point x="548" y="604"/>
      <point x="590" y="579"/>
      <point x="607" y="502" type="curve"/>
      <point x="618" y="502"/>
      <point x="637" y="503"/>
      <point x="646" y="507" type="curve"/>
      <point x="639" y="553"/>
      <point x="634" y="605"/>
      <point x="633" y="650" type="curve"/>
      <point x="633" y="651"/>
      <point x="631" y="653"/>
      <point x="630" y="653" type="curve"/>
      <point x="596" y="650"/>
      <point x="485" y="645"/>
      <point x="406" y="645" type="curve" smooth="yes"/>
      <point x="265" y="645" type="line" smooth="yes"/>
      <point x="188" y="645"/>
      <point x="70" y="650"/>
      <point x="32" y="653" type="curve"/>
      <point x="30" y="653"/>
      <point x="28" y="651"/>
      <point x="28" y="650" type="curve"/>
      <point x="24" y="605"/>
      <point x="14" y="552"/>
      <point x="3" y="504" type="curve"/>
      <point x="13" y="500"/>
      <point x="30" y="499"/>
      <point x="42" y="499" type="curve"/>
      <point x="62" y="579"/>
      <point x="103" y="604"/>
      <point x="169" y="604" type="curve" smooth="yes"/>
      <point x="218" y="604" type="line" smooth="yes"/>
      <point x="255" y="604"/>
      <point x="265" y="567"/>
      <point x="265" y="506" type="curve" smooth="yes"/>
      <point x="265" y="123" type="line" smooth="yes"/>
      <point x="265" y="40"/>
      <point x="248" y="35"/>
      <point x="168" y="32" type="curve"/>
      <point x="165" y="29"/>
      <point x="164" y="22"/>
      <point x="164" y="15" type="curve" smooth="yes"/>
      <point x="164" y="8"/>
      <point x="165" y="1"/>
      <point x="168" y="-2" type="curve"/>
      <point x="217" y="-1"/>
      <point x="269" y="0"/>
      <point x="333" y="0" type="curve" smooth="yes"/>
      <point x="399" y="0"/>
      <point x="452" y="-1"/>
      <point x="502" y="-2" type="curve"/>
      <point x="505" y="1"/>
      <point x="507" y="8"/>
      <point x="507" y="15" type="curve" smooth="yes"/>
      <point x="507" y="22"/>
      <point x="505" y="29"/>
      <point x="502" y="32" type="curve"/>
      <point x="422" y="35"/>
      <point x="405" y="40"/>
    </contour>
  </outline>
</glyph>
<glyph name="uni0404" format="2">
  <advance width="657"/>
  <unicode hex="0404"/>
  <outline>
    <contour>
      <point x="366" y="616" type="curve" smooth="yes"/>
      <point x="504" y="616"/>
      <point x="549" y="539"/>
      <point x="575" y="453" type="curve"/>
      <point x="587" y="449"/>
      <point x="607" y="452"/>
      <point x="618" y="458" type="curve"/>
      <point x="607.633" y="509.827"/>
      <point x="600.035" y="556.216"/>
      <point x="596" y="613" type="curve"/>
      <point x="545" y="618"/>
      <point x="500" y="658"/>
      <point x="377" y="658" type="curve" smooth="yes"/>
      <point x="163.539" y="658"/>
      <point x="38" y="531.558"/>
      <point x="38" y="315" type="curve" smooth="yes"/>
      <point x="38" y="119.352"/>
      <point x="168.456" y="-11.9621"/>
      <point x="364.477" y="-11.9621" type="curve" smooth="yes"/>
      <point x="517.023" y="-11.9621"/>
      <point x="611" y="44.2947"/>
      <point x="611" y="127" type="curve" smooth="yes"/>
      <point x="611" y="156"/>
      <point x="595" y="176"/>
      <point x="567" y="176" type="curve" smooth="yes"/>
      <point x="523.741" y="176"/>
      <point x="515.9" y="131.558"/>
      <point x="503.658" y="100.15" type="curve" smooth="yes"/>
      <point x="481.688" y="43.7812"/>
      <point x="434.469" y="30"/>
      <point x="369.719" y="30" type="curve" smooth="yes"/>
      <point x="248.719" y="30"/>
      <point x="198" y="171"/>
      <point x="189" y="303" type="curve"/>
      <point x="206.25" y="306.75"/>
      <point x="223.485" y="309.609"/>
      <point x="244.547" y="309.609" type="curve" smooth="yes"/>
      <point x="306.588" y="309.609"/>
      <point x="360.11" y="278"/>
      <point x="421" y="278" type="curve" smooth="yes"/>
      <point x="479" y="278"/>
      <point x="543" y="312"/>
      <point x="543" y="337" type="curve" smooth="yes"/>
      <point x="543" y="345"/>
      <point x="538" y="354"/>
      <point x="534" y="354" type="curve" smooth="yes"/>
      <point x="526" y="354"/>
      <point x="510" y="337"/>
      <point x="472" y="337" type="curve" smooth="yes"/>
      <point x="410.922" y="337"/>
      <point x="364.784" y="374.815"/>
      <point x="297.704" y="374.815" type="curve" smooth="yes"/>
      <point x="277.041" y="374.815"/>
      <point x="232.333" y="370"/>
      <point x="189" y="350" type="curve"/>
      <point x="195" y="492"/>
      <point x="227" y="616"/>
    </contour>
  </outline>
</glyph>
<glyph name="uni040F" format="2">
  <advance width="805"/>
  <unicode hex="040F"/>
  <outline>
    <contour>
      <point x="497" y="-2" type="curve"/>
      <point x="497" y="-2"/>
      <point x="571" y="0"/>
      <point x="621" y="0" type="curve" smooth="yes"/>
      <point x="661" y="0"/>
      <point x="735" y="-1"/>
      <point x="775" y="-2" type="curve"/>
      <point x="785" y="4"/>
      <point x="785" y="26"/>
      <point x="775" y="32" type="curve"/>
      <point x="720" y="35"/>
      <point x="692" y="39"/>
      <point x="692" y="122" type="curve" smooth="yes"/>
      <point x="692" y="523" type="line" smooth="yes"/>
      <point x="692" y="606"/>
      <point x="720" y="610"/>
      <point x="775" y="613" type="curve"/>
      <point x="785" y="619"/>
      <point x="785" y="641"/>
      <point x="775" y="647" type="curve"/>
      <point x="735" y="646"/>
      <point x="661" y="645"/>
      <point x="621" y="645" type="curve" smooth="yes"/>
      <point x="581" y="645"/>
      <point x="509" y="646"/>
      <point x="469" y="647" type="curve"/>
      <point x="459" y="641"/>
      <point x="459" y="619"/>
      <point x="469" y="613" type="curve"/>
      <point x="524" y="610"/>
      <point x="552" y="606"/>
      <point x="552" y="523" type="curve" smooth="yes"/>
      <point x="552" y="122" type="line" smooth="yes"/>
      <point x="552" y="50"/>
      <point x="524" y="43"/>
      <point x="468" y="43" type="curve" smooth="yes"/>
      <point x="337" y="43" type="line" smooth="yes"/>
      <point x="281" y="43"/>
      <point x="253" y="50"/>
      <point x="253" y="122" type="curve" smooth="yes"/>
      <point x="253" y="523" type="line" smooth="yes"/>
      <point x="253" y="606"/>
      <point x="281" y="610"/>
      <point x="336" y="613" type="curve"/>
      <point x="346" y="619"/>
      <point x="346" y="641"/>
      <point x="336" y="647" type="curve"/>
      <point x="296" y="646"/>
      <point x="224" y="645"/>
      <point x="184" y="645" type="curve" smooth="yes"/>
      <point x="144" y="645"/>
      <point x="70" y="646"/>
      <point x="30" y="647" type="curve"/>
      <point x="20" y="641"/>
      <point x="20" y="619"/>
      <point x="30" y="613" type="curve"/>
      <point x="85" y="610"/>
      <point x="113" y="606"/>
      <point x="113" y="523" type="curve" smooth="yes"/>
      <point x="113" y="122" type="line" smooth="yes"/>
      <point x="113" y="39"/>
      <point x="85" y="35"/>
      <point x="30" y="32" type="curve"/>
      <point x="20" y="26"/>
      <point x="20" y="4"/>
      <point x="30" y="-2" type="curve"/>
      <point x="70" y="-1"/>
      <point x="144" y="0"/>
      <point x="184" y="0" type="curve" smooth="yes"/>
      <point x="234" y="0"/>
      <point x="308" y="-2"/>
      <point x="308" y="-2" type="curve"/>
      <point x="337" y="-2"/>
      <point x="357" y="-40"/>
      <point x="365" y="-141" type="curve"/>
      <point x="391" y="-137"/>
      <point x="415" y="-135"/>
      <point x="439" y="-141" type="curve"/>
      <point x="447" y="-41"/>
      <point x="463" y="-2"/>
    </contour>
  </outline>
</glyph>
<glyph name="uni042E" format="2">
  <advance width="980"/>
  <unicode hex="042E"/>
  <anchor x="335" y="850" name="m.uni0302"/>
  <anchor x="640" y="-110" name="m.uni0316_2"/>
  <anchor x="640" y="0" name="b.uni0327_5"/>
  <anchor x="433" y="740" name="t.uni0302"/>
  <outline>
    <component base="I"/>
    <contour>
      <point x="638" y="658" type="curve" smooth="yes"/>
      <point x="445.095" y="658"/>
      <point x="336.481" y="491.881"/>
      <point x="336.481" y="312.727" type="curve" smooth="yes"/>
      <point x="336.481" y="127.67"/>
      <point x="447.208" y="-10"/>
      <point x="639" y="-10" type="curve" smooth="yes"/>
      <point x="835" y="-10"/>
      <point x="942" y="129"/>
      <point x="942" y="329" type="curve" smooth="yes"/>
      <point x="942" y="527"/>
      <point x="828" y="658"/>
    </contour>
    <contour>
      <point x="487" y="327" type="curve" smooth="yes"/>
      <point x="487" y="537"/>
      <point x="553" y="616"/>
      <point x="626" y="616" type="curve" smooth="yes"/>
      <point x="747" y="616"/>
      <point x="792" y="518"/>
      <point x="792" y="310" type="curve" smooth="yes"/>
      <point x="792" y="131"/>
      <point x="753" y="32"/>
      <point x="657" y="32" type="curve" smooth="yes"/>
      <point x="549" y="32"/>
      <point x="487" y="135"/>
    </contour>
    <contour>
      <point x="239" y="300" type="line"/>
      <point x="359.5" y="300" type="line"/>
      <point x="359.5" y="349" type="line"/>
      <point x="239" y="349" type="line"/>
    </contour>
  </outline>
</glyph>
<glyph name="uni0448" format="2">
  <advance width="926"/>
  <unicode hex="0448"/>
  <outline>
    <contour>
      <point x="25" y="-2" type="curve"/>
      <point x="68" y="-1"/>
      <point x="116" y="0"/>
      <point x="167" y="0" type="curve" smooth="yes"/>
      <point x="757" y="0" type="line" smooth="yes"/>
      <point x="810" y="0"/>
      <point x="856" y="-1"/>
      <point x="899" y="-2" type="curve"/>
      <point x="905" y="4"/>
      <point x="905" y="26"/>
      <point x="899" y="32" type="curve"/>
      <point x="838" y="35"/>
      <point x="822" y="44"/>
      <point x="822" y="127" type="curve" smooth="yes"/>
      <point x="822" y="307" type="line" smooth="yes"/>
      <point x="822" y="390"/>
      <point x="838" y="399"/>
      <point x="899" y="402" type="curve"/>
      <point x="905" y="408"/>
      <point x="905" y="430"/>
      <point x="899" y="436" type="curve"/>
      <point x="857" y="435"/>
      <point x="812" y="434"/>
      <point x="757" y="434" type="curve" smooth="yes"/>
      <point x="709" y="434"/>
      <point x="658" y="435"/>
      <point x="635" y="436" type="curve"/>
      <point x="629" y="430"/>
      <point x="629" y="408"/>
      <point x="635" y="402" type="curve"/>
      <point x="676" y="399"/>
      <point x="692" y="390"/>
      <point x="692" y="307" type="curve" smooth="yes"/>
      <point x="692" y="127" type="line" smooth="yes"/>
      <point x="692" y="50"/>
      <point x="676" y="47"/>
      <point x="635" y="44" type="curve"/>
      <point x="584" y="44" type="line"/>
      <point x="543" y="47"/>
      <point x="527" y="52"/>
      <point x="527" y="127" type="curve" smooth="yes"/>
      <point x="527" y="307" type="line" smooth="yes"/>
      <point x="527" y="390"/>
      <point x="543" y="399"/>
      <point x="584" y="402" type="curve"/>
      <point x="590" y="408"/>
      <point x="590" y="430"/>
      <point x="584" y="436" type="curve"/>
      <point x="561" y="435"/>
      <point x="510" y="434"/>
      <point x="462" y="434" type="curve" smooth="yes"/>
      <point x="414" y="434"/>
      <point x="363" y="435"/>
      <point x="340" y="436" type="curve"/>
      <point x="334" y="430"/>
      <point x="334" y="408"/>
      <point x="340" y="402" type="curve"/>
      <point x="381" y="399"/>
      <point x="397" y="390"/>
      <point x="397" y="307" type="curve" smooth="yes"/>
      <point x="397" y="127" type="line" smooth="yes"/>
      <point x="397" y="50"/>
      <point x="381" y="47"/>
      <point x="340" y="44" type="curve"/>
      <point x="289" y="44" type="line"/>
      <point x="248" y="47"/>
      <point x="232" y="50"/>
      <point x="232" y="127" type="curve" smooth="yes"/>
      <point x="232" y="307" type="line" smooth="yes"/>
      <point x="232" y="390"/>
      <point x="248" y="399"/>
      <point x="289" y="402" type="curve"/>
      <point x="295" y="408"/>
      <point x="295" y="430"/>
      <point x="289" y="436" type="curve"/>
      <point x="266" y="435"/>
      <point x="215" y="434"/>
      <point x="167" y="434" type="curve" smooth="yes"/>
      <point x="112" y="434"/>
      <point x="67" y="435"/>
      <point x="25" y="436" type="curve"/>
      <point x="19" y="430"/>
      <point x="19" y="408"/>
      <point x="25" y="402" type="curve"/>
      <point x="86" y="399"/>
      <point x="102" y="390"/>
      <point x="102" y="307" type="curve" smooth="yes"/>
      <point x="102" y="127" type="line" smooth="yes"/>
      <point x="102" y="44"/>
      <point x="86" y="35"/>
      <point x="25" y="32" type="curve"/>
      <point x="19" y="26"/>
      <point x="19" y="4"/>
    </contour>
  </outline>
</glyph>
<glyph name="uni0460" format="2">
  <advance width="954"/>
  <unicode hex="0460"/>
  <outline>
    <contour>
      <point x="419" y="190" type="curve" smooth="yes"/>
      <point x="419" y="140" type="line" smooth="yes"/>
      <point x="419" y="99"/>
      <point x="383" y="32"/>
      <point x="313" y="32" type="curve" smooth="yes"/>
      <point x="196" y="32"/>
      <point x="180" y="183"/>
      <point x="180" y="330" type="curve" smooth="yes"/>
      <point x="180" y="501"/>
      <point x="231" y="616"/>
      <point x="314" y="616" type="curve" smooth="yes"/>
      <point x="330" y="616"/>
      <point x="338" y="602"/>
      <point x="338" y="589" type="curve" smooth="yes"/>
      <point x="338" y="574"/>
      <point x="319" y="567"/>
      <point x="319" y="543" type="curve" smooth="yes"/>
      <point x="319" y="510"/>
      <point x="347" y="480"/>
      <point x="384" y="480" type="curve" smooth="yes"/>
      <point x="432" y="480"/>
      <point x="459" y="513"/>
      <point x="459" y="556" type="curve" smooth="yes"/>
      <point x="459" y="616"/>
      <point x="411" y="658"/>
      <point x="338" y="658" type="curve" smooth="yes"/>
      <point x="162" y="658"/>
      <point x="28" y="539"/>
      <point x="28" y="327" type="curve" smooth="yes"/>
      <point x="28" y="175"/>
      <point x="105" y="-12"/>
      <point x="305" y="-12" type="curve" smooth="yes"/>
      <point x="398" y="-12"/>
      <point x="445" y="28"/>
      <point x="476" y="77" type="curve"/>
      <point x="482" y="77" type="line"/>
      <point x="513" y="28"/>
      <point x="560" y="-12"/>
      <point x="653" y="-12" type="curve" smooth="yes"/>
      <point x="853" y="-12"/>
      <point x="931" y="175"/>
      <point x="931" y="327" type="curve" smooth="yes"/>
      <point x="931" y="539"/>
      <point x="796" y="658"/>
      <point x="620" y="658" type="curve" smooth="yes"/>
      <point x="547" y="658"/>
      <point x="499" y="616"/>
      <point x="499" y="556" type="curve" smooth="yes"/>
      <point x="499" y="513"/>
      <point x="526" y="480"/>
      <point x="574" y="480" type="curve" smooth="yes"/>
      <point x="611" y="480"/>
      <point x="640" y="510"/>
      <point x="640" y="543" type="curve" smooth="yes"/>
      <point x="640" y="567"/>
      <point x="620" y="574"/>
      <point x="620" y="589" type="curve" smooth="yes"/>
      <point x="620" y="602"/>
      <point x="628" y="616"/>
      <point x="644" y="616" type="curve" smooth="yes"/>
      <point x="727" y="616"/>
      <point x="779" y="501"/>
      <point x="779" y="330" type="curve" smooth="yes"/>
      <point x="779" y="183"/>
      <point x="762" y="32"/>
      <point x="645" y="32" type="curve" smooth="yes"/>
      <point x="575" y="32"/>
      <point x="539" y="99"/>
      <point x="539" y="140" type="curve" smooth="yes"/>
      <point x="539" y="190" type="line" smooth="yes"/>
      <point x="539" y="217"/>
      <point x="559" y="232"/>
      <point x="585" y="232" type="curve" smooth="yes"/>
      <point x="615" y="232" type="line"/>
      <point x="620" y="244"/>
      <point x="620" y="254"/>
      <point x="615" y="266" type="curve"/>
      <point x="604" y="266"/>
      <point x="521" y="262"/>
      <point x="477" y="262" type="curve" smooth="yes"/>
      <point x="438" y="262"/>
      <point x="353" y="266"/>
      <point x="344" y="266" type="curve"/>
      <point x="339" y="254"/>
      <point x="339" y="244"/>
      <point x="344" y="232" type="curve"/>
      <point x="374" y="232" type="line" smooth="yes"/>
      <point x="397" y="232"/>
      <point x="419" y="221"/>
    </contour>
  </outline>
</glyph>
<glyph name="uni046A" format="2">
  <advance width="890"/>
  <unicode hex="046A"/>
  <outline>
    <contour>
      <point x="354" y="323" type="curve" smooth="yes"/>
      <point x="401" y="323" type="line"/>
      <point x="401" y="71" type="line" smooth="yes"/>
      <point x="401" y="43"/>
      <point x="387" y="27"/>
      <point x="346" y="27" type="curve" smooth="yes"/>
      <point x="330" y="27" type="line" smooth="yes"/>
      <point x="325" y="27"/>
      <point x="322" y="24"/>
      <point x="322" y="19" type="curve" smooth="yes"/>
      <point x="322" y="0" type="line"/>
      <point x="324" y="-2" type="line"/>
      <point x="324" y="-2"/>
      <point x="407" y="0"/>
      <point x="443" y="0" type="curve" smooth="yes"/>
      <point x="482" y="0"/>
      <point x="559" y="-2"/>
      <point x="559" y="-2" type="curve"/>
      <point x="561" y="0" type="line"/>
      <point x="561" y="19" type="line" smooth="yes"/>
      <point x="561" y="24"/>
      <point x="557" y="27"/>
      <point x="553" y="27" type="curve" smooth="yes"/>
      <point x="536" y="27" type="line" smooth="yes"/>
      <point x="497" y="27"/>
      <point x="482" y="41"/>
      <point x="482" y="71" type="curve" smooth="yes"/>
      <point x="482" y="323" type="line"/>
      <point x="536" y="323" type="line" smooth="yes"/>
      <point x="584" y="323"/>
      <point x="619" y="309"/>
      <point x="651" y="244" type="curve" smooth="yes"/>
      <point x="733" y="71" type="line" smooth="yes"/>
      <point x="749" y="37"/>
      <point x="732" y="27"/>
      <point x="691" y="27" type="curve" smooth="yes"/>
      <point x="669" y="27" type="line" smooth="yes"/>
      <point x="664" y="27"/>
      <point x="661" y="24"/>
      <point x="661" y="19" type="curve" smooth="yes"/>
      <point x="661" y="0" type="line"/>
      <point x="663" y="-2" type="line"/>
      <point x="663" y="-2"/>
      <point x="752" y="0"/>
      <point x="787" y="0" type="curve" smooth="yes"/>
      <point x="826" y="0"/>
      <point x="899" y="-2"/>
      <point x="899" y="-2" type="curve"/>
      <point x="901" y="0" type="line"/>
      <point x="901" y="19" type="line" smooth="yes"/>
      <point x="901" y="24"/>
      <point x="897" y="27"/>
      <point x="892" y="27" type="curve" smooth="yes"/>
      <point x="880" y="27" type="line" smooth="yes"/>
      <point x="850" y="27"/>
      <point x="827" y="43"/>
      <point x="814" y="71" type="curve" smooth="yes"/>
      <point x="731" y="244" type="line" smooth="yes"/>
      <point x="691" y="328"/>
      <point x="645" y="362"/>
      <point x="557" y="362" type="curve" smooth="yes"/>
      <point x="512" y="362" type="line"/>
      <point x="710" y="625" type="line" smooth="yes"/>
      <point x="722" y="641"/>
      <point x="706" y="645"/>
      <point x="693" y="645" type="curve" smooth="yes"/>
      <point x="163" y="645" type="line" smooth="yes"/>
      <point x="146" y="645"/>
      <point x="132.286" y="641.246"/>
      <point x="146" y="625" type="curve" smooth="yes"/>
      <point x="368" y="362" type="line"/>
      <point x="333" y="362" type="line" smooth="yes"/>
      <point x="244" y="362"/>
      <point x="198" y="328"/>
      <point x="158" y="244" type="curve" smooth="yes"/>
      <point x="76" y="71" type="line" smooth="yes"/>
      <point x="62" y="43"/>
      <point x="40" y="27"/>
      <point x="9" y="27" type="curve" smooth="yes"/>
      <point x="-3" y="27" type="line" smooth="yes"/>
      <point x="-7" y="27"/>
      <point x="-11" y="24"/>
      <point x="-11" y="19" type="curve" smooth="yes"/>
      <point x="-11" y="0" type="line"/>
      <point x="-9" y="-2" type="line"/>
      <point x="-9" y="-2"/>
      <point x="63" y="0"/>
      <point x="102" y="0" type="curve" smooth="yes"/>
      <point x="138" y="0"/>
      <point x="226" y="-2"/>
      <point x="226" y="-2" type="curve"/>
      <point x="228" y="0" type="line"/>
      <point x="228" y="19" type="line" smooth="yes"/>
      <point x="228" y="24"/>
      <point x="225" y="27"/>
      <point x="220" y="27" type="curve" smooth="yes"/>
      <point x="199" y="27" type="line" smooth="yes"/>
      <point x="158" y="27"/>
      <point x="140" y="37"/>
      <point x="156" y="71" type="curve" smooth="yes"/>
      <point x="239" y="244" type="line" smooth="yes"/>
      <point x="270" y="309"/>
      <point x="306" y="323"/>
    </contour>
    <contour>
      <point x="468" y="365" type="line"/>
      <point x="260" y="610" type="line"/>
      <point x="653" y="610" type="line"/>
    </contour>
  </outline>
</glyph>
<glyph name="uni048E" format="2">
  <advance width="615"/>
  <unicode hex="048E"/>
  <outline>
    <contour>
      <point x="397.915" y="300.609" type="line"/>
      <point x="496.668" y="185.213" type="line"/>
      <point x="542.148" y="228.231" type="line"/>
      <point x="453.315" y="330.559" type="line"/>
    </contour>
    <contour>
      <point x="441.968" y="342.892" type="line"/>
      <point x="348.148" y="451.231" type="line"/>
      <point x="300.668" y="412.213" type="line"/>
      <point x="389.501" y="309.885" type="line"/>
    </contour>
    <contour>
      <point x="27" y="-2" type="curve"/>
      <point x="76" y="-1"/>
      <point x="177" y="0"/>
      <point x="187" y="0" type="curve"/>
      <point x="187" y="645" type="line"/>
      <point x="177" y="645"/>
      <point x="77" y="646"/>
      <point x="27" y="647" type="curve"/>
      <point x="21" y="641"/>
      <point x="21" y="619"/>
      <point x="27" y="613" type="curve"/>
      <point x="97" y="610"/>
      <point x="114" y="605"/>
      <point x="114" y="522" type="curve" smooth="yes"/>
      <point x="114" y="123" type="line" smooth="yes"/>
      <point x="114" y="39"/>
      <point x="97" y="35"/>
      <point x="27" y="32" type="curve"/>
      <point x="21" y="26"/>
      <point x="21" y="4"/>
    </contour>
    <contour>
      <point x="182" y="0" type="line"/>
      <point x="222" y="0"/>
      <point x="298" y="-1"/>
      <point x="338" y="-2" type="curve"/>
      <point x="348" y="4"/>
      <point x="348" y="26"/>
      <point x="338" y="32" type="curve"/>
      <point x="283" y="35"/>
      <point x="255" y="39"/>
      <point x="255" y="122" type="curve" smooth="yes"/>
      <point x="255" y="524" type="line" smooth="yes"/>
      <point x="255" y="592"/>
      <point x="262" y="613"/>
      <point x="315" y="613" type="curve" smooth="yes"/>
      <point x="373" y="613"/>
      <point x="440" y="589"/>
      <point x="440" y="467" type="curve" smooth="yes"/>
      <point x="440" y="363"/>
      <point x="411" y="319"/>
      <point x="329" y="319" type="curve" smooth="yes"/>
      <point x="314" y="319"/>
      <point x="293" y="320"/>
      <point x="279" y="322" type="curve"/>
      <point x="279" y="303"/>
      <point x="285" y="289"/>
      <point x="299" y="280" type="curve"/>
      <point x="313" y="278"/>
      <point x="310" y="277"/>
      <point x="334" y="277" type="curve" smooth="yes"/>
      <point x="476" y="277"/>
      <point x="591" y="322"/>
      <point x="591" y="484" type="curve" smooth="yes"/>
      <point x="591" y="625"/>
      <point x="460" y="654"/>
      <point x="347" y="654" type="curve" smooth="yes"/>
      <point x="326" y="654"/>
      <point x="255" y="647"/>
      <point x="182" y="645" type="curve"/>
    </contour>
  </outline>
</glyph>
<glyph name="uni049C" format="2">
  <advance width="625"/>
  <unicode hex="049C"/>
  <outline>
    <contour>
      <point x="356" y="120" type="line"/>
      <point x="356" y="204" type="line"/>
      <point x="356" y="203"/>
      <point x="357" y="202"/>
      <point x="358" y="201" type="curve"/>
      <point x="357" y="200"/>
      <point x="358" y="200"/>
      <point x="358" y="198" type="curve" smooth="yes"/>
      <point x="358" y="197"/>
      <point x="359" y="196"/>
      <point x="359" y="195" type="curve"/>
      <point x="361" y="190"/>
      <point x="363" y="185"/>
      <point x="365" y="180" type="curve" smooth="yes"/>
      <point x="367" y="175"/>
      <point x="369" y="170"/>
      <point x="371" y="165" type="curve" smooth="yes"/>
      <point x="411" y="70"/>
      <point x="448" y="1"/>
      <point x="538" y="0" type="curve" smooth="yes"/>
      <point x="542" y="0"/>
      <point x="546" y="0.0533333"/>
      <point x="550" y="0" type="curve" smooth="yes"/>
      <point x="625" y="-1" type="line"/>
      <point x="634" y="8" type="line"/>
      <point x="634" y="13"/>
      <point x="634" y="18"/>
      <point x="634" y="23" type="curve" smooth="yes"/>
      <point x="634" y="31"/>
      <point x="620" y="35"/>
      <point x="604" y="35" type="curve" smooth="yes"/>
      <point x="601" y="35"/>
      <point x="597" y="35"/>
      <point x="594" y="35" type="curve" smooth="yes"/>
      <point x="570" y="35"/>
      <point x="523" y="109"/>
      <point x="464" y="239" type="curve"/>
      <point x="442" y="290"/>
      <point x="417" y="342"/>
      <point x="356" y="358" type="curve"/>
      <point x="356" y="363" type="line"/>
      <point x="343" y="359" type="line"/>
      <point x="419" y="392"/>
      <point x="450" y="467"/>
      <point x="471" y="520" type="curve"/>
      <point x="472" y="523"/>
      <point x="473" y="526"/>
      <point x="474" y="529" type="curve" smooth="yes"/>
      <point x="483" y="555"/>
      <point x="498" y="583"/>
      <point x="501" y="583" type="curve" smooth="yes"/>
      <point x="505" y="583"/>
      <point x="511" y="581"/>
      <point x="518" y="577" type="curve"/>
      <point x="522" y="575"/>
      <point x="526" y="573"/>
      <point x="530" y="571" type="curve" smooth="yes"/>
      <point x="540" y="566"/>
      <point x="551" y="561"/>
      <point x="564" y="559" type="curve"/>
      <point x="569" y="558"/>
      <point x="574" y="558"/>
      <point x="579" y="558" type="curve" smooth="yes"/>
      <point x="610" y="558"/>
      <point x="644" y="577"/>
      <point x="644" y="603" type="curve" smooth="yes"/>
      <point x="644" y="628"/>
      <point x="624" y="653"/>
      <point x="555" y="653" type="curve" smooth="yes"/>
      <point x="549" y="653"/>
      <point x="543" y="653"/>
      <point x="538" y="652" type="curve"/>
      <point x="456" y="646"/>
      <point x="419" y="592"/>
      <point x="397" y="542" type="curve" smooth="yes"/>
      <point x="385" y="514"/>
      <point x="372" y="482"/>
      <point x="356" y="455" type="curve"/>
      <point x="356" y="551" type="line"/>
      <point x="268" y="551" type="line"/>
      <point x="268" y="388" type="line"/>
      <point x="257" y="386"/>
      <point x="245" y="385"/>
      <point x="233" y="385" type="curve"/>
      <point x="233" y="534" type="line" smooth="yes"/>
      <point x="233" y="546"/>
      <point x="233" y="559"/>
      <point x="233" y="571" type="curve" smooth="yes"/>
      <point x="233" y="596"/>
      <point x="241" y="611"/>
      <point x="266" y="611" type="curve" smooth="yes"/>
      <point x="275" y="611"/>
      <point x="283" y="611"/>
      <point x="292" y="611" type="curve" smooth="yes"/>
      <point x="310" y="611"/>
      <point x="321" y="615"/>
      <point x="321" y="623" type="curve" smooth="yes"/>
      <point x="321" y="628"/>
      <point x="321" y="633"/>
      <point x="321" y="638" type="curve"/>
      <point x="318" y="641"/>
      <point x="314" y="644"/>
      <point x="311" y="647" type="curve"/>
      <point x="311" y="647"/>
      <point x="205" y="645"/>
      <point x="170" y="645" type="curve" smooth="yes"/>
      <point x="131" y="645"/>
      <point x="31" y="647"/>
      <point x="31" y="647" type="curve"/>
      <point x="28" y="644"/>
      <point x="25" y="641"/>
      <point x="22" y="638" type="curve"/>
      <point x="22" y="633"/>
      <point x="22" y="628"/>
      <point x="22" y="623" type="curve" smooth="yes"/>
      <point x="22" y="620"/>
      <point x="24" y="618"/>
      <point x="26" y="616" type="curve"/>
      <point x="31" y="613"/>
      <point x="41" y="611"/>
      <point x="51" y="611" type="curve" smooth="yes"/>
      <point x="60" y="611"/>
      <point x="69" y="611"/>
      <point x="78" y="611" type="curve" smooth="yes"/>
      <point x="101" y="611"/>
      <point x="110" y="599"/>
      <point x="110" y="571" type="curve" smooth="yes"/>
      <point x="110" y="554"/>
      <point x="110" y="537"/>
      <point x="110" y="520" type="curve" smooth="yes"/>
      <point x="110" y="125" type="line" smooth="yes"/>
      <point x="110" y="108"/>
      <point x="110" y="91"/>
      <point x="110" y="74" type="curve" smooth="yes"/>
      <point x="110" y="49"/>
      <point x="102" y="35"/>
      <point x="78" y="35" type="curve" smooth="yes"/>
      <point x="69" y="35"/>
      <point x="60" y="35"/>
      <point x="51" y="35" type="curve" smooth="yes"/>
      <point x="33" y="35"/>
      <point x="22" y="31"/>
      <point x="22" y="23" type="curve" smooth="yes"/>
      <point x="22" y="18"/>
      <point x="22" y="13"/>
      <point x="22" y="8" type="curve"/>
      <point x="25" y="5"/>
      <point x="29" y="2"/>
      <point x="32" y="-1" type="curve"/>
      <point x="32" y="-1"/>
      <point x="120" y="1"/>
      <point x="162" y="1" type="curve" smooth="yes"/>
      <point x="173" y="1" type="line" smooth="yes"/>
      <point x="212" y="1"/>
      <point x="312" y="-1"/>
      <point x="312" y="-1" type="curve"/>
      <point x="315" y="2"/>
      <point x="318" y="5"/>
      <point x="321" y="8" type="curve"/>
      <point x="321" y="13"/>
      <point x="321" y="18"/>
      <point x="321" y="23" type="curve" smooth="yes"/>
      <point x="321" y="26"/>
      <point x="320" y="28"/>
      <point x="317" y="30" type="curve"/>
      <point x="312" y="33"/>
      <point x="303" y="35"/>
      <point x="292" y="35" type="curve" smooth="yes"/>
      <point x="283" y="35"/>
      <point x="275" y="35"/>
      <point x="266" y="35" type="curve" smooth="yes"/>
      <point x="242" y="35"/>
      <point x="233" y="47"/>
      <point x="233" y="74" type="curve" smooth="yes"/>
      <point x="233" y="91"/>
      <point x="233" y="109"/>
      <point x="233" y="126" type="curve" smooth="yes"/>
      <point x="233" y="333" type="line"/>
      <point x="251" y="331"/>
      <point x="267" y="327"/>
      <point x="281" y="320" type="curve"/>
      <point x="268" y="324" type="line"/>
      <point x="268" y="120" type="line"/>
    </contour>
  </outline>
</glyph>
<glyph name="uni04C7" format="2">
  <advance width="786"/>
  <unicode hex="04C7"/>
  <outline>
    <contour>
      <point x="533" y="74" type="line" smooth="yes"/>
      <point x="533" y="-90"/>
      <point x="477" y="-154"/>
      <point x="415" y="-154" type="curve" smooth="yes"/>
      <point x="352.124" y="-154"/>
      <point x="307" y="-119.898"/>
      <point x="307" y="-55" type="curve"/>
      <point x="240" y="-55" type="line"/>
      <point x="240" y="-212" type="line"/>
      <point x="306" y="-212" type="line"/>
      <point x="306" y="-207"/>
      <point x="306.204" y="-198.989"/>
      <point x="307" y="-181.923" type="curve" smooth="yes"/>
      <point x="307.316" y="-175.147"/>
      <point x="312.386" y="-170"/>
      <point x="318.072" y="-170" type="curve" smooth="yes"/>
      <point x="332.277" y="-170"/>
      <point x="357" y="-191"/>
      <point x="422" y="-191" type="curve" smooth="yes"/>
      <point x="559" y="-191"/>
      <point x="673" y="-72"/>
      <point x="673" y="75" type="curve" smooth="yes"/>
      <point x="673" y="200" type="line"/>
      <point x="533" y="200" type="line"/>
    </contour>
    <contour>
      <point x="30" y="-2" type="curve"/>
      <point x="70" y="-1"/>
      <point x="144" y="0"/>
      <point x="184" y="0" type="curve" smooth="yes"/>
      <point x="224" y="0"/>
      <point x="296" y="-1"/>
      <point x="336" y="-2" type="curve"/>
      <point x="346" y="4"/>
      <point x="346" y="26"/>
      <point x="336" y="32" type="curve"/>
      <point x="281" y="35"/>
      <point x="253" y="39"/>
      <point x="253" y="122" type="curve" smooth="yes"/>
      <point x="253" y="319" type="line"/>
      <point x="533" y="319" type="line"/>
      <point x="533" y="122" type="line"/>
      <point x="673" y="122" type="line"/>
      <point x="673" y="523" type="line" smooth="yes"/>
      <point x="673" y="606"/>
      <point x="701" y="610"/>
      <point x="756" y="613" type="curve"/>
      <point x="766" y="619"/>
      <point x="766" y="641"/>
      <point x="756" y="647" type="curve"/>
      <point x="716" y="646"/>
      <point x="644" y="645"/>
      <point x="604" y="645" type="curve" smooth="yes"/>
      <point x="564" y="645"/>
      <point x="490" y="646"/>
      <point x="450" y="647" type="curve"/>
      <point x="440" y="641"/>
      <point x="440" y="619"/>
      <point x="450" y="613" type="curve"/>
      <point x="505" y="610"/>
      <point x="533" y="606"/>
      <point x="533" y="523" type="curve" smooth="yes"/>
      <point x="533" y="367" type="line"/>
      <point x="253" y="367" type="line"/>
      <point x="253" y="523" type="line" smooth="yes"/>
      <point x="253" y="606"/>
      <point x="281" y="610"/>
      <point x="336" y="613" type="curve"/>
      <point x="346" y="619"/>
      <point x="346" y="641"/>
      <point x="336" y="647" type="curve"/>
      <point x="296" y="646"/>
      <point x="224" y="645"/>
      <point x="184" y="645" type="curve" smooth="yes"/>
      <point x="144" y="645"/>
      <point x="70" y="646"/>
      <point x="30" y="647" type="curve"/>
      <point x="20" y="641"/>
      <point x="20" y="619"/>
      <point x="30" y="613" type="curve"/>
      <point x="85" y="610"/>
      <point x="113" y="606"/>
      <point x="113" y="523" type="curve" smooth="yes"/>
      <point x="113" y="122" type="line" smooth="yes"/>
      <point x="113" y="39"/>
      <point x="85" y="35"/>
      <point x="30" y="32" type="curve"/>
      <point x="20" y="26"/>
      <point x="20" y="4"/>
    </contour>
  </outline>
</glyph>
<glyph name="uni04C9" format="2">
  <advance width="817"/>
  <unicode hex="04C9"/>
  <outline>
    <component base="uni041D"/>
    <contour>
      <point x="673.404" y="1" type="line"/>
      <point x="705" y="1" type="line"/>
      <point x="650" y="-123" type="line"/>
      <point x="734" y="-123" type="line"/>
      <point x="805" y="35" type="line"/>
      <point x="673.404" y="35" type="line"/>
    </contour>
  </outline>
</glyph>
<glyph name="uni05E0" format="2">
  <advance width="317"/>
  <unicode hex="05E0"/>
  <outline>
    <contour>
      <point x="265" y="273" type="curve" smooth="yes"/>
      <point x="265" y="301"/>
      <point x="269" y="330"/>
      <point x="273" y="360" type="curve"/>
      <point x="278" y="389"/>
      <point x="282" y="418"/>
      <point x="282" y="447" type="curve" smooth="yes"/>
      <point x="282" y="508"/>
      <point x="225" y="517"/>
      <point x="169" y="520" type="curve"/>
      <point x="150" y="520"/>
      <point x="126" y="522"/>
      <point x="120" y="556" type="curve"/>
      <point x="120" y="556"/>
      <point x="34" y="555"/>
      <point x="34" y="481" type="curve" smooth="yes"/>
      <point x="34" y="439"/>
      <point x="84.9907" y="409.869"/>
      <point x="168" y="404" type="curve" smooth="yes"/>
      <point x="183.991" y="402.869"/>
      <point x="194" y="392"/>
      <point x="194" y="369" type="curve" smooth="yes"/>
      <point x="194" y="345"/>
      <point x="191.929" y="318.005"/>
      <point x="190" y="291" type="curve" smooth="yes"/>
      <point x="187.929" y="262.005"/>
      <point x="186" y="232"/>
      <point x="186" y="205" type="curve" smooth="yes"/>
      <point x="186" y="197"/>
      <point x="186" y="190"/>
      <point x="187" y="183" type="curve"/>
      <point x="188" y="158"/>
      <point x="189" y="136"/>
      <point x="195" y="106" type="curve"/>
      <point x="30" y="106" type="line"/>
      <point x="-5" y="0" type="line"/>
      <point x="289" y="0" type="line"/>
      <point x="293" y="18"/>
      <point x="295" y="40"/>
      <point x="295" y="66" type="curve" smooth="yes"/>
      <point x="295" y="87"/>
      <point x="289" y="113"/>
      <point x="282" y="143" type="curve" smooth="yes"/>
      <point x="274" y="179"/>
      <point x="265" y="221"/>
    </contour>
  </outline>
</glyph>
<glyph name="bullet" format="2">
  <advance width="351"/>
  <unicode hex="2022"/>
  <outline>
    <contour>
      <point x="49" y="234" type="curve" smooth="yes"/>
      <point x="49" y="162"/>
      <point x="106" y="105"/>
      <point x="175" y="105" type="curve" smooth="yes"/>
      <point x="253" y="105"/>
      <point x="302" y="169"/>
      <point x="302" y="231" type="curve" smooth="yes"/>
      <point x="302" y="303"/>
      <point x="242" y="359"/>
      <point x="175" y="359" type="curve" smooth="yes"/>
      <point x="110" y="359"/>
      <point x="49" y="303"/>
    </contour>
  </outline>
</glyph>
<glyph name="uni2076" format="2">
  <advance width="303"/>
  <unicode hex="2076"/>
  <outline>
    <contour>
      <point x="279" y="573" type="curve" smooth="yes"/>
      <point x="279" y="638.651"/>
      <point x="235.836" y="675"/>
      <point x="159" y="675" type="curve" smooth="yes"/>
      <point x="144" y="675"/>
      <point x="128" y="672"/>
      <point x="114" y="666" type="curve"/>
      <point x="130" y="720"/>
      <point x="170" y="781"/>
      <point x="263" y="799" type="curve"/>
      <point x="263" y="820" type="line"/>
      <point x="88" y="806"/>
      <point x="24" y="696"/>
      <point x="24" y="607" type="curve" smooth="yes"/>
      <point x="24" y="515.76"/>
      <point x="75.1132" y="460"/>
      <point x="158" y="460" type="curve" smooth="yes"/>
      <point x="247" y="460"/>
      <point x="279" y="532"/>
    </contour>
    <contour>
      <point x="194" y="568" type="curve" smooth="yes"/>
      <point x="194" y="530"/>
      <point x="190" y="492"/>
      <point x="158" y="492" type="curve" smooth="yes"/>
      <point x="129" y="492"/>
      <point x="106" y="519"/>
      <point x="106" y="605" type="curve" smooth="yes"/>
      <point x="106" y="614"/>
      <point x="106" y="622"/>
      <point x="106" y="631" type="curve"/>
      <point x="121" y="643"/>
      <point x="131" y="646"/>
      <point x="148" y="646" type="curve" smooth="yes"/>
      <point x="189" y="646"/>
      <point x="194" y="589"/>
    </contour>
  </outline>
</glyph>
<glyph name="uni2096" format="2">
  <advance width="393"/>
  <unicode hex="2096"/>
  <outline>
    <contour>
      <point x="19.5024" y="-112" type="curve"/>
      <point x="45.1728" y="-111.384"/>
      <point x="70.8432" y="-110.768"/>
      <point x="103.237" y="-110.768" type="curve" smooth="yes"/>
      <point x="131.352" y="-110.768"/>
      <point x="148.466" y="-111.384"/>
      <point x="174.747" y="-112" type="curve"/>
      <point x="178.414" y="-108.304"/>
      <point x="178.414" y="-94.752"/>
      <point x="174.747" y="-91.056" type="curve"/>
      <point x="149.077" y="-88.592"/>
      <point x="142.965" y="-86.744"/>
      <point x="142.965" y="-35.616" type="curve"/>
      <point x="63.5088" y="-35.616" type="line"/>
      <point x="63.5088" y="-86.744"/>
      <point x="56.7856" y="-87.976"/>
      <point x="19.5024" y="-91.056" type="curve"/>
      <point x="15.8352" y="-94.752"/>
      <point x="15.8352" y="-108.304"/>
    </contour>
    <contour>
      <point x="63.5088" y="-34.4717" type="line"/>
      <point x="142.965" y="-34.4717" type="line"/>
      <point x="142.965" y="249.504" type="line" smooth="yes"/>
      <point x="142.965" y="289.544"/>
      <point x="144.798" y="309.872"/>
      <point x="144.798" y="312.336" type="curve" smooth="yes"/>
      <point x="144.798" y="317.88"/>
      <point x="140.52" y="320.344"/>
      <point x="135.019" y="320.344" type="curve"/>
      <point x="112.405" y="312.952"/>
      <point x="63.5088" y="306.176"/>
      <point x="20.1136" y="304.328" type="curve"/>
      <point x="18.28" y="296.936"/>
      <point x="18.8912" y="290.16"/>
      <point x="21.9472" y="284.616" type="curve"/>
      <point x="60.4528" y="281.536"/>
      <point x="63.5088" y="280.92"/>
      <point x="63.5088" y="238.416" type="curve" smooth="yes"/>
    </contour>
    <contour>
      <point x="133.186" y="19.1203" type="line"/>
      <point x="167.413" y="19.1203"/>
      <point x="181.47" y="13.5763"/>
      <point x="188.805" y="1.25631" type="curve" smooth="yes"/>
      <point x="226.699" y="-61.5757" type="line" smooth="yes"/>
      <point x="233.422" y="-72.6637"/>
      <point x="236.478" y="-86.8317"/>
      <point x="236.478" y="-108.392" type="curve" smooth="yes"/>
      <point x="236.478" y="-109.624"/>
      <point x="237.701" y="-110.856"/>
      <point x="239.534" y="-110.856" type="curve" smooth="yes"/>
      <point x="242.59" y="-110.856"/>
      <point x="265.205" y="-109.624"/>
      <point x="286.597" y="-109.624" type="curve" smooth="yes"/>
      <point x="311.656" y="-109.624"/>
      <point x="345.883" y="-110.24"/>
      <point x="368.498" y="-110.856" type="curve"/>
      <point x="372.165" y="-107.16"/>
      <point x="372.165" y="-93.6077"/>
      <point x="368.498" y="-89.9117" type="curve"/>
      <point x="344.661" y="-87.4477"/>
      <point x="331.214" y="-89.2957"/>
      <point x="312.878" y="-61.5757" type="curve" smooth="yes"/>
      <point x="241.979" y="43.7603" type="line"/>
      <point x="240.146" y="46.2243"/>
      <point x="238.923" y="49.3043"/>
      <point x="238.923" y="51.7683" type="curve" smooth="yes"/>
      <point x="238.923" y="53"/>
      <point x="239.996" y="55.9141"/>
      <point x="242.031" y="58.1706" type="curve" smooth="yes"/>
      <point x="270.706" y="89.96" type="line" smooth="yes"/>
      <point x="303.008" y="125.772"/>
      <point x="315.934" y="134.928"/>
      <point x="353.218" y="138.008" type="curve"/>
      <point x="356.885" y="141.704"/>
      <point x="356.885" y="155.256"/>
      <point x="353.218" y="158.952" type="curve"/>
      <point x="339.771" y="158.336"/>
      <point x="301.266" y="157.72"/>
      <point x="285.374" y="157.72" type="curve" smooth="yes"/>
      <point x="262.76" y="157.72"/>
      <point x="234.034" y="158.336"/>
      <point x="211.419" y="158.952" type="curve"/>
      <point x="207.752" y="155.256"/>
      <point x="207.752" y="141.704"/>
      <point x="211.419" y="138.008" type="curve"/>
      <point x="233.422" y="136.16"/>
      <point x="245.035" y="133.08"/>
      <point x="245.035" y="123.84" type="curve" smooth="yes"/>
      <point x="245.035" y="109.056"/>
      <point x="211.419" y="70.864"/>
      <point x="197.362" y="61.008" type="curve" smooth="yes"/>
      <point x="185.749" y="53"/>
      <point x="158.245" y="44.376"/>
      <point x="133.186" y="44.376" type="curve"/>
    </contour>
  </outline>
</glyph>
<glyph name="germanpenny" format="2">
  <advance width="513"/>
  <unicode hex="20B0"/>
  <outline>
    <contour>
      <point x="348.8" y="0" type="curve" smooth="yes"/>
      <point x="370.935" y="0"/>
      <point x="392.859" y="9.63552"/>
      <point x="412.15" y="19.6" type="curve" smooth="yes"/>
      <point x="455.806" y="42.15"/>
      <point x="474.1" y="77.3174"/>
      <point x="474.1" y="126" type="curve" smooth="yes"/>
      <point x="474.1" y="204.011"/>
      <point x="403.777" y="253.156"/>
      <point x="357.9" y="305.9" type="curve"/>
      <point x="388.44" y="365.066"/>
      <point x="414.6" y="433.627"/>
      <point x="414.6" y="501.2" type="curve" smooth="yes"/>
      <point x="414.6" y="562.945"/>
      <point x="378.156" y="658"/>
      <point x="304" y="658" type="curve" smooth="yes"/>
      <point x="245.407" y="658"/>
      <point x="234" y="560.317"/>
      <point x="234" y="518" type="curve" smooth="yes"/>
      <point x="234" y="436.885"/>
      <point x="280.353" y="365.688"/>
      <point x="325" y="301.7" type="curve"/>
      <point x="308.724" y="269.851"/>
      <point x="285.824" y="234.871"/>
      <point x="252.9" y="218.4" type="curve"/>
      <point x="239.231" y="246.901"/>
      <point x="206.392" y="357.138"/>
      <point x="199.525" y="366.1" type="curve" smooth="yes"/>
      <point x="196.908" y="369.515"/>
      <point x="193.496" y="371"/>
      <point x="189.2" y="371" type="curve" smooth="yes"/>
      <point x="152.202" y="371"/>
      <point x="134.29" y="131.6"/>
      <point x="81.4" y="131.6" type="curve" smooth="yes"/>
      <point x="70.718" y="131.6"/>
      <point x="52.7706" y="146.935"/>
      <point x="43.6" y="152.6" type="curve"/>
      <point x="39.7499" y="148.575" type="line"/>
      <point x="38.8127" y="145.536"/>
      <point x="38" y="142.141"/>
      <point x="38" y="138.95" type="curve" smooth="yes"/>
      <point x="38" y="126.12"/>
      <point x="66.5442" y="106.188"/>
      <point x="76.8501" y="100.8" type="curve"/>
      <point x="108.56" y="100.803"/>
      <point x="129.588" y="135.766"/>
      <point x="139.5" y="161.7" type="curve" smooth="yes"/>
      <point x="190.6" y="295.4" type="line"/>
      <point x="227" y="186.2" type="line"/>
      <point x="245.2" y="171.85" type="line"/>
      <point x="294.209" y="195.821"/>
      <point x="320.184" y="229.524"/>
      <point x="341.8" y="277.2" type="curve"/>
      <point x="388.641" y="230.928"/>
      <point x="426.5" y="195.38"/>
      <point x="426.5" y="126" type="curve" smooth="yes"/>
      <point x="426.5" y="81.5655"/>
      <point x="396.144" y="42"/>
      <point x="348.8" y="42" type="curve" smooth="yes"/>
      <point x="323.045" y="42"/>
      <point x="270.772" y="53.9875"/>
      <point x="253.6" y="74.2" type="curve" smooth="yes"/>
      <point x="249.113" y="79.4816"/>
      <point x="244.159" y="86.0699"/>
      <point x="236.45" y="86.0999" type="curve"/>
      <point x="224.622" y="80.638"/>
      <point x="219.65" y="57.5549"/>
      <point x="219.65" y="45.8501" type="curve" smooth="yes"/>
      <point x="219.65" y="38.989"/>
      <point x="222.308" y="33.6364"/>
      <point x="227" y="28.7001" type="curve"/>
      <point x="259.843" y="17.751"/>
      <point x="314.113" y="0"/>
    </contour>
    <contour>
      <point x="340.4" y="333.9" type="curve"/>
      <point x="308.835" y="389.509"/>
      <point x="277.4" y="451.634"/>
      <point x="277.4" y="517.3" type="curve" smooth="yes"/>
      <point x="277.4" y="537.711"/>
      <point x="280.042" y="619.5"/>
      <point x="309.6" y="619.5" type="curve" smooth="yes"/>
      <point x="360.866" y="619.5"/>
      <point x="382.4" y="540.34"/>
      <point x="382.4" y="499.8" type="curve" smooth="yes"/>
      <point x="382.4" y="437.514"/>
      <point x="365.621" y="389.872"/>
    </contour>
  </outline>
</glyph>
<glyph name="uni211A" format="2">
  <advance width="740"/>
  <unicode hex="211A"/>
  <outline>
    <contour>
      <point x="695" y="329" type="curve" smooth="yes"/>
      <point x="695" y="528"/>
      <point x="547" y="658"/>
      <point x="364" y="658" type="curve" smooth="yes"/>
      <point x="264" y="658"/>
      <point x="177" y="615"/>
      <point x="119" y="546" type="curve" smooth="yes"/>
      <point x="67" y="484"/>
      <point x="38" y="401"/>
      <point x="38" y="309" type="curve" smooth="yes"/>
      <point x="38" y="125"/>
      <point x="173" y="8"/>
      <point x="329" y="-8" type="curve"/>
      <point x="268" y="-40"/>
      <point x="213" y="-87"/>
      <point x="177" y="-130" type="curve"/>
      <point x="177" y="-130"/>
      <point x="177" y="-130"/>
      <point x="177" y="-130" type="curve"/>
      <point x="171" y="-137"/>
      <point x="165" y="-145"/>
      <point x="160" y="-153" type="curve"/>
      <point x="199" y="-183" type="line"/>
      <point x="210" y="-167"/>
      <point x="223" y="-152"/>
      <point x="235" y="-138" type="curve"/>
      <point x="250" y="-128"/>
      <point x="264" y="-124"/>
      <point x="272" y="-124" type="curve" smooth="yes"/>
      <point x="312" y="-124"/>
      <point x="346" y="-143"/>
      <point x="383" y="-165" type="curve" smooth="yes"/>
      <point x="431" y="-195"/>
      <point x="484" y="-229"/>
      <point x="558" y="-229" type="curve" smooth="yes"/>
      <point x="621" y="-229"/>
      <point x="663" y="-193"/>
      <point x="702" y="-137" type="curve"/>
      <point x="685" y="-115" type="line"/>
      <point x="663" y="-142"/>
      <point x="627" y="-152"/>
      <point x="598" y="-152" type="curve" smooth="yes"/>
      <point x="557" y="-152"/>
      <point x="520" y="-132"/>
      <point x="482" y="-111" type="curve" smooth="yes"/>
      <point x="436" y="-87"/>
      <point x="388" y="-60"/>
      <point x="329" y="-60" type="curve"/>
      <point x="329" y="-60"/>
      <point x="329" y="-60"/>
      <point x="329" y="-60" type="curve"/>
      <point x="328" y="-60"/>
      <point x="327" y="-60"/>
      <point x="326" y="-60" type="curve" smooth="yes"/>
      <point x="324" y="-60" type="line"/>
      <point x="360" y="-35"/>
      <point x="395" y="-18"/>
      <point x="421" y="-8" type="curve"/>
      <point x="427" y="-7"/>
      <point x="432" y="-5"/>
      <point x="436" y="-4" type="curve"/>
      <point x="507" y="9"/>
      <point x="566" y="42"/>
      <point x="609" y="89" type="curve"/>
      <point x="614" y="94"/>
      <point x="618" y="99"/>
      <point x="622" y="104" type="curve" smooth="yes"/>
      <point x="669" y="163"/>
      <point x="695" y="239"/>
    </contour>
    <contour>
      <point x="298" y="58" type="curve"/>
      <point x="298" y="605" type="line"/>
      <point x="315" y="612"/>
      <point x="333" y="616"/>
      <point x="352" y="616" type="curve"/>
      <point x="352" y="616"/>
      <point x="352" y="616"/>
      <point x="352" y="616" type="curve"/>
      <point x="459" y="616"/>
      <point x="544" y="511"/>
      <point x="544" y="308" type="curve" smooth="yes"/>
      <point x="544" y="142"/>
      <point x="486" y="32"/>
      <point x="385" y="32" type="curve" smooth="yes"/>
      <point x="354" y="32"/>
      <point x="324" y="41"/>
    </contour>
    <contour>
      <point x="264" y="87" type="line"/>
      <point x="218" y="137"/>
      <point x="189" y="220"/>
      <point x="189" y="329" type="curve" smooth="yes"/>
      <point x="189" y="459"/>
      <point x="219" y="540"/>
      <point x="264" y="582" type="curve"/>
    </contour>
  </outline>
</glyph>
<glyph name="diamondwhite-misc" format="2">
  <advance width="657"/>
  <unicode hex="2662"/>
  <outline>
    <contour>
      <point x="332" y="620" type="curve"/>
      <point x="240" y="500"/>
      <point x="143" y="395"/>
      <point x="40" y="302" type="curve"/>
      <point x="149" y="200"/>
      <point x="247" y="94"/>
      <point x="332" y="-17" type="curve"/>
      <point x="421" y="97"/>
      <point x="516" y="202"/>
      <point x="617" y="302" type="curve"/>
      <point x="503" y="400"/>
      <point x="414" y="509"/>
    </contour>
    <contour>
      <point x="330.595" y="492.122" type="curve"/>
      <point x="379.672" y="425.689"/>
      <point x="432.938" y="360.452"/>
      <point x="501.167" y="301.799" type="curve"/>
      <point x="440.719" y="241.949"/>
      <point x="383.861" y="179.107"/>
      <point x="330.595" y="110.878" type="curve"/>
      <point x="279.722" y="177.311"/>
      <point x="221.069" y="240.752"/>
      <point x="155.833" y="301.799" type="curve"/>
      <point x="217.478" y="357.46"/>
      <point x="275.533" y="420.302"/>
    </contour>
  </outline>
</glyph>
<glyph name="brackethalfbottomright" format="2">
  <advance width="397"/>
  <unicode hex="2E25"/>
  <outline>
    <contour>
      <point x="302" y="259.995" type="line"/>
      <point x="202" y="259.995" type="line"/>
      <point x="202" y="-53" type="line" smooth="yes"/>
      <point x="202" y="-140"/>
      <point x="194" y="-155"/>
      <point x="57" y="-165" type="curve"/>
      <point x="51" y="-171"/>
      <point x="51" y="-189"/>
      <point x="57" y="-195" type="curve"/>
      <point x="302" y="-195" type="line"/>
    </contour>
  </outline>
</glyph>
<glyph name="s_t" format="2">
  <advance width="756"/>
  <unicode hex="FB06"/>
  <outline>
    <contour>
      <point x="58" y="146" type="curve"/>
      <point x="65.7808" y="98.466"/>
      <point x="71.1494" y="45.075"/>
      <point x="72.9055" y="-2" type="curve"/>
      <point x="99.3455" y="-2.1575"/>
      <point x="176.353" y="-10"/>
      <point x="209" y="-10" type="curve" smooth="yes"/>
      <point x="291" y="-10"/>
      <point x="377" y="32"/>
      <point x="377" y="126" type="curve" smooth="yes"/>
      <point x="377" y="190.061"/>
      <point x="334.27" y="240.399"/>
      <point x="261" y="263.87" type="curve" smooth="yes"/>
      <point x="191.497" y="286.134"/>
      <point x="176" y="302.613"/>
      <point x="176" y="355" type="curve" smooth="yes"/>
      <point x="176" y="383"/>
      <point x="195" y="402"/>
      <point x="223" y="402" type="curve" smooth="yes"/>
      <point x="259" y="402"/>
      <point x="293" y="370"/>
      <point x="318" y="309" type="curve"/>
      <point x="331" y="306"/>
      <point x="339" y="307"/>
      <point x="347" y="314" type="curve"/>
      <point x="342.946" y="352.177"/>
      <point x="341.449" y="385"/>
      <point x="344.449" y="416" type="curve"/>
      <point x="303.449" y="423"/>
      <point x="273.489" y="444"/>
      <point x="218" y="444" type="curve" smooth="yes"/>
      <point x="122" y="444"/>
      <point x="63" y="395"/>
      <point x="63" y="314" type="curve" smooth="yes"/>
      <point x="63" y="251.113"/>
      <point x="95.8195" y="209.409"/>
      <point x="156" y="187" type="curve" smooth="yes"/>
      <point x="237.038" y="156.825"/>
      <point x="261" y="132.634"/>
      <point x="261" y="81" type="curve" smooth="yes"/>
      <point x="261" y="49.1735"/>
      <point x="241.99" y="29"/>
      <point x="212" y="29" type="curve" smooth="yes"/>
      <point x="167" y="29"/>
      <point x="119" y="75"/>
      <point x="98" y="148" type="curve"/>
      <point x="82" y="151"/>
      <point x="74" y="150"/>
    </contour>
    <contour>
      <point x="335.491" y="414.047" type="line"/>
      <point x="277.491" y="451.047"/>
      <point x="263" y="508"/>
      <point x="263" y="559" type="curve" smooth="yes"/>
      <point x="263" y="609"/>
      <point x="308" y="660"/>
      <point x="391" y="660" type="curve" smooth="yes"/>
      <point x="486" y="660"/>
      <point x="527" y="613"/>
      <point x="527" y="524" type="curve" smooth="yes"/>
      <point x="527" y="484"/>
      <point x="522" y="434"/>
      <point x="455" y="434" type="curve" smooth="yes"/>
      <point x="435" y="434"/>
      <point x="417" y="432"/>
      <point x="417" y="426" type="curve" smooth="yes"/>
      <point x="417" y="392" type="line" smooth="yes"/>
      <point x="417" y="386"/>
      <point x="419" y="384"/>
      <point x="435" y="384" type="curve" smooth="yes"/>
      <point x="486" y="384" type="line"/>
      <point x="486" y="92" type="line" smooth="yes"/>
      <point x="486" y="19"/>
      <point x="542" y="-10"/>
      <point x="592" y="-10" type="curve" smooth="yes"/>
      <point x="647" y="-10"/>
      <point x="696" y="15"/>
      <point x="733" y="64" type="curve"/>
      <point x="710" y="87" type="line"/>
      <point x="681" y="64"/>
      <point x="662" y="62"/>
      <point x="642" y="62" type="curve" smooth="yes"/>
      <point x="629" y="62"/>
      <point x="616" y="69"/>
      <point x="616" y="135" type="curve" smooth="yes"/>
      <point x="616" y="384" type="line"/>
      <point x="703" y="384" type="line" smooth="yes"/>
      <point x="722" y="384"/>
      <point x="740" y="389"/>
      <point x="740" y="401" type="curve" smooth="yes"/>
      <point x="740" y="424" type="line" smooth="yes"/>
      <point x="740" y="430"/>
      <point x="737" y="434"/>
      <point x="718" y="434" type="curve" smooth="yes"/>
      <point x="616" y="434" type="line"/>
      <point x="611" y="524" type="line" smooth="yes"/>
      <point x="604.834" y="634.991"/>
      <point x="526" y="698"/>
      <point x="401" y="698" type="curve" smooth="yes"/>
      <point x="281" y="698"/>
      <point x="211" y="626"/>
      <point x="211" y="554" type="curve" smooth="yes"/>
      <point x="211" y="513"/>
      <point x="222.066" y="471.12"/>
      <point x="249" y="444" type="curve" smooth="yes"/>
      <point x="279.055" y="413.737" type="line"/>
    </contour>
  </outline>
</glyph>
<glyph name="_corner.LClb" format="2">
  <advance width="169"/>
  <outline>
    <contour>
      <point x="99" y="127" type="move"/>
      <point x="99" y="44"/>
      <point x="83" y="35"/>
      <point x="22" y="32" type="curve"/>
      <point x="16" y="26"/>
      <point x="16" y="4"/>
      <point x="22" y="-2" type="curve"/>
      <point x="60" y="-1"/>
      <point x="101" y="0"/>
      <point x="149" y="0" type="curve"/>
    </contour>
  </outline>
</glyph>
<glyph name="five.numr" format="2">
  <advance width="277"/>
  <outline>
    <contour>
      <point x="170.167" y="412.189" type="curve" smooth="yes"/>
      <point x="170.167" y="360.387"/>
      <point x="153.156" y="330.015"/>
      <point x="124.141" y="330.015" type="curve" smooth="yes"/>
      <point x="106.982" y="330.015"/>
      <point x="96.4189" y="342.145"/>
      <point x="86.3896" y="353.668" type="curve" smooth="yes"/>
      <point x="72.9956" y="369.056"/>
      <point x="65.5889" y="374.015"/>
      <point x="56" y="374.015" type="curve" smooth="yes"/>
      <point x="38.3182" y="374.015"/>
      <point x="20" y="357.223"/>
      <point x="20" y="341.015" type="curve" smooth="yes"/>
      <point x="20" y="316.27"/>
      <point x="63.5476" y="299.015"/>
      <point x="126" y="299.015" type="curve" smooth="yes"/>
      <point x="194.612" y="299.015"/>
      <point x="253" y="354.645"/>
      <point x="253" y="425.432" type="curve" smooth="yes"/>
      <point x="253" y="491.415"/>
      <point x="202.266" y="539.199"/>
      <point x="124.222" y="539.199" type="curve" smooth="yes"/>
      <point x="111.279" y="539.199"/>
      <point x="97.9432" y="538.066"/>
      <point x="85" y="536.015" type="curve"/>
      <point x="93.937" y="597.607" type="line"/>
      <point x="111.83" y="594.85"/>
      <point x="132.104" y="593.607"/>
      <point x="159.215" y="593.607" type="curve" smooth="yes"/>
      <point x="187.423" y="593.607"/>
      <point x="212.946" y="594.938"/>
      <point x="235.937" y="597.607" type="curve"/>
      <point x="249.565" y="657.829" type="line"/>
      <point x="245.309" y="663.385" type="line"/>
      <point x="218.863" y="660.026"/>
      <point x="189.186" y="659.015"/>
      <point x="161.538" y="659.015" type="curve" smooth="yes"/>
      <point x="118.739" y="659.015"/>
      <point x="90.3305" y="660.07"/>
      <point x="64.937" y="662.607" type="curve"/>
      <point x="42" y="499.015" type="line"/>
      <point x="47" y="495.015" type="line"/>
      <point x="64.874" y="501.526"/>
      <point x="88.6395" y="504.961"/>
      <point x="100.762" y="504.961" type="curve" smooth="yes"/>
      <point x="140.891" y="504.961"/>
      <point x="170.167" y="465.829"/>
    </contour>
  </outline>
</glyph>
<glyph name="p.sc" format="2">
  <advance width="537"/>
  <outline>
    <contour>
      <point x="27" y="-2" type="curve"/>
      <point x="69" y="-1"/>
      <point x="114" y="0"/>
      <point x="169" y="0" type="curve" smooth="yes"/>
      <point x="224" y="0"/>
      <point x="268" y="-1"/>
      <point x="311" y="-2" type="curve"/>
      <point x="317" y="4"/>
      <point x="317" y="26"/>
      <point x="311" y="32" type="curve"/>
      <point x="250" y="35"/>
      <point x="234" y="44"/>
      <point x="234" y="127" type="curve" smooth="yes"/>
      <point x="234" y="459.999" type="line"/>
      <point x="114" y="460"/>
      <point x="70" y="461"/>
      <point x="27" y="462" type="curve"/>
      <point x="21" y="456"/>
      <point x="21" y="434"/>
      <point x="27" y="428" type="curve"/>
      <point x="88" y="425"/>
      <point x="104" y="416"/>
      <point x="104" y="333" type="curve" smooth="yes"/>
      <point x="104" y="127" type="line" smooth="yes"/>
      <point x="104" y="44"/>
      <point x="88" y="35"/>
      <point x="27" y="32" type="curve"/>
      <point x="21" y="26"/>
      <point x="21" y="4"/>
    </contour>
    <contour>
      <point x="225.572" y="201.471" type="line"/>
      <point x="238.585" y="190.954"/>
      <point x="288.718" y="185.894"/>
      <point x="315.352" y="185.815" type="curve" smooth="yes"/>
      <point x="412.299" y="185.53"/>
      <point x="513" y="233.741"/>
      <point x="513" y="345" type="curve" smooth="yes"/>
      <point x="513" y="453.93"/>
      <point x="418.231" y="467"/>
      <point x="332" y="467" type="curve" smooth="yes"/>
      <point x="275.751" y="467"/>
      <point x="219.818" y="459.935"/>
      <point x="163.535" y="460.003" type="curve"/>
      <point x="163.535" y="360.276" type="line"/>
      <point x="234.042" y="360.212" type="line"/>
      <point x="234.042" y="366.968" type="line" smooth="yes"/>
      <point x="234.042" y="401.08"/>
      <point x="259.05" y="427"/>
      <point x="293" y="427" type="curve" smooth="yes"/>
      <point x="348" y="427"/>
      <point x="373" y="391"/>
      <point x="373" y="328" type="curve" smooth="yes"/>
      <point x="373" y="272"/>
      <point x="358" y="226"/>
      <point x="298" y="226" type="curve" smooth="yes"/>
      <point x="273.384" y="226"/>
      <point x="244.224" y="227.515"/>
      <point x="219.842" y="241.731" type="curve"/>
    </contour>
  </outline>
</glyph>
<glyph name="zero.numr" format="2">
  <advance width="318"/>
  <outline>
    <contour>
      <point x="157" y="299" type="curve" smooth="yes"/>
      <point x="237.665" y="299"/>
      <point x="294" y="375.484"/>
      <point x="294" y="485" type="curve" smooth="yes"/>
      <point x="294" y="594.862"/>
      <point x="244.606" y="659"/>
      <point x="160" y="659" type="curve" smooth="yes"/>
      <point x="83.4974" y="659"/>
      <point x="24" y="580.691"/>
      <point x="24" y="480" type="curve" smooth="yes"/>
      <point x="24" y="368.158"/>
      <point x="74.8181" y="299"/>
    </contour>
    <contour>
      <point x="160" y="633" type="curve" smooth="yes"/>
      <point x="186.79" y="633"/>
      <point x="203" y="586.635"/>
      <point x="203" y="510.012" type="curve" smooth="yes"/>
      <point x="203" y="470.012" type="line" smooth="yes"/>
      <point x="203" y="375.007"/>
      <point x="187.482" y="325"/>
      <point x="158" y="325" type="curve" smooth="yes"/>
      <point x="130.796" y="325"/>
      <point x="115" y="372.203"/>
      <point x="115" y="453.5" type="curve" smooth="yes"/>
      <point x="115" y="493.5" type="line" smooth="yes"/>
      <point x="115" y="579.85"/>
      <point x="132.145" y="633"/>
    </contour>
  </outline>
</glyph>
